<?xml version="1.0" encoding="UTF-8" standalone="no"?>
<svg
   xmlns:dc="http://purl.org/dc/elements/1.1/"
   xmlns:cc="http://creativecommons.org/ns#"
   xmlns:rdf="http://www.w3.org/1999/02/22-rdf-syntax-ns#"
   xmlns:svg="http://www.w3.org/2000/svg"
   xmlns="http://www.w3.org/2000/svg"
   xmlns:sodipodi="http://sodipodi.sourceforge.net/DTD/sodipodi-0.dtd"
   xmlns:inkscape="http://www.inkscape.org/namespaces/inkscape"
   sodipodi:docname="Logos.svg"
   inkscape:version="1.0 (4035a4fb49, 2020-05-01)"
   width="480px"
   height="160px"
   viewBox="0 0 480 160"
   version="1.1"
   id="SVGRoot">
  <defs
     id="defs833" />
  <sodipodi:namedview
     inkscape:window-maximized="1"
     inkscape:window-y="-9"
     inkscape:window-x="1591"
     inkscape:window-height="1001"
     inkscape:window-width="1920"
     showgrid="false"
     inkscape:document-rotation="0"
     inkscape:current-layer="layer1"
     inkscape:document-units="px"
     inkscape:cy="75.113224"
     inkscape:cx="195.74657"
     inkscape:zoom="1.979899"
     inkscape:pageshadow="2"
     inkscape:pageopacity="0.0"
     borderopacity="1.0"
     bordercolor="#666666"
     pagecolor="#ffffff"
     id="base" />
  <metadata
     id="metadata836">
    <rdf:RDF>
      <cc:Work
         rdf:about="">
        <dc:format>image/svg+xml</dc:format>
        <dc:type
           rdf:resource="http://purl.org/dc/dcmitype/StillImage" />
        <dc:title></dc:title>
      </cc:Work>
    </rdf:RDF>
  </metadata>
  <g
     id="layer1"
     inkscape:groupmode="layer"
     inkscape:label="Layer 1">
    <rect
       y="1.0101526"
       x="157.07872"
       height="40.911179"
       width="182.83762"
       id="rect1685"
       style="fill:#1f5c46;fill-opacity:1;stroke:none;stroke-width:6.04724;stroke-linecap:square;stroke-miterlimit:10;stroke-dashoffset:9.11486;paint-order:markers fill stroke" />
    <g
       id="g1743">
      <g
         transform="translate(36.850262,-10.606602)"
         style="font-style:normal;font-variant:normal;font-weight:normal;font-stretch:normal;font-size:40px;line-height:1.25;font-family:Impact;-inkscape-font-specification:Impact;fill:#1f5c46;fill-opacity:1;stroke:none"
         id="g1623"
         aria-label="Finance ">
        <path
           style="fill:#1f5c46;fill-opacity:1"
           id="path1609"
           d="m 169.32596,62.828171 h 13.92578 v 6.328125 h -5.70313 v 5.996094 h 5.07813 v 6.015625 h -5.07813 v 13.28125 h -8.22265 z" />
        <path
           style="fill:#1f5c46;fill-opacity:1"
           id="path1611"
           d="m 193.15408,62.828171 v 4.121094 h -8.125 v -4.121094 z m 0,5.703125 v 25.917969 h -8.125 V 68.531296 Z" />
        <path
           style="fill:#1f5c46;fill-opacity:1"
           id="path1613"
           d="m 203.99393,68.531296 -0.13672,2.382812 q 0.85937,-1.425781 2.08984,-2.128906 1.25,-0.722656 2.8711,-0.722656 2.03125,0 3.32031,0.957031 1.28906,0.957031 1.66015,2.421875 0.3711,1.445313 0.3711,4.84375 v 18.164063 h -7.89063 V 76.500046 q 0,-2.675781 -0.17578,-3.261719 -0.17578,-0.585937 -0.97656,-0.585937 -0.83984,0 -1.05469,0.683593 -0.21484,0.664063 -0.21484,3.59375 v 17.519532 h -7.89063 V 68.531296 Z" />
        <path
           style="fill:#1f5c46;fill-opacity:1"
           id="path1615"
           d="m 223.95486,78.570358 h -7.40234 v -1.738281 q 0,-3.007812 0.68359,-4.628906 0.70313,-1.640625 2.79297,-2.890625 2.08985,-1.25 5.42969,-1.25 4.00391,0 6.03516,1.425781 2.03125,1.40625 2.4414,3.476563 0.41016,2.050781 0.41016,8.476562 v 13.007813 h -7.67578 v -2.304688 q -0.72266,1.386719 -1.875,2.089844 -1.13281,0.683594 -2.71485,0.683594 -2.07031,0 -3.80859,-1.152344 -1.71875,-1.171875 -1.71875,-5.097656 v -2.128907 q 0,-2.910156 0.91797,-3.964843 0.91797,-1.054688 4.55078,-2.460938 3.88672,-1.523437 4.16016,-2.050781 0.27343,-0.527344 0.27343,-2.148438 0,-2.03125 -0.3125,-2.636718 -0.29296,-0.625 -0.99609,-0.625 -0.80078,0 -0.99609,0.527343 -0.19532,0.507813 -0.19532,2.675782 z m 2.5,3.554688 q -1.89453,1.386719 -2.20703,2.324219 -0.29297,0.9375 -0.29297,2.695312 0,2.011719 0.25391,2.597656 0.27344,0.585938 1.05469,0.585938 0.74219,0 0.95703,-0.449219 0.23437,-0.46875 0.23437,-2.421875 z" />
        <path
           style="fill:#1f5c46;fill-opacity:1"
           id="path1617"
           d="m 245.08768,68.531296 -0.13672,2.382812 q 0.85937,-1.425781 2.08984,-2.128906 1.25,-0.722656 2.8711,-0.722656 2.03125,0 3.32031,0.957031 1.28906,0.957031 1.66015,2.421875 0.3711,1.445313 0.3711,4.84375 v 18.164063 h -7.89063 V 76.500046 q 0,-2.675781 -0.17578,-3.261719 -0.17578,-0.585937 -0.97656,-0.585937 -0.83984,0 -1.05469,0.683593 -0.21484,0.664063 -0.21484,3.59375 v 17.519532 h -7.89063 V 68.531296 Z" />
        <path
           style="fill:#1f5c46;fill-opacity:1"
           id="path1619"
           d="m 275.43924,78.316452 h -7.44141 v -2.988281 q 0,-1.5625 -0.2539,-2.109375 -0.25391,-0.566406 -0.9375,-0.566406 -0.6836,0 -0.91797,0.488281 -0.23438,0.488281 -0.23438,2.1875 v 12.226562 q 0,1.386719 0.35157,2.089844 0.35156,0.683594 1.03515,0.683594 0.80078,0 1.07422,-0.722656 0.29297,-0.722657 0.29297,-2.734375 v -3.085938 h 7.03125 q -0.0195,3.105469 -0.23438,4.667969 -0.19531,1.542969 -1.30859,3.183594 -1.09375,1.621093 -2.87109,2.460937 -1.77735,0.820313 -4.39453,0.820313 -3.33985,0 -5.29297,-1.132813 -1.95313,-1.152344 -2.77344,-3.203125 -0.80078,-2.070312 -0.80078,-5.859375 v -7.363281 q 0,-3.300781 0.66406,-4.980469 0.66406,-1.679687 2.83203,-2.988281 2.16797,-1.328125 5.27344,-1.328125 3.08594,0 5.27344,1.308594 2.1875,1.308593 2.91015,3.300781 0.72266,1.992187 0.72266,5.644531 z" />
        <path
           style="fill:#1f5c46;fill-opacity:1"
           id="path1621"
           d="m 295.63455,81.949265 h -10.21484 v 5.605468 q 0,1.757813 0.2539,2.265625 0.25391,0.507813 0.97657,0.507813 0.89843,0 1.1914,-0.664063 0.3125,-0.683593 0.3125,-2.617187 v -3.417969 h 7.48047 v 1.914063 q 0,2.402343 -0.3125,3.691406 -0.29297,1.289062 -1.40625,2.753906 -1.11328,1.464844 -2.83203,2.207031 -1.69922,0.722657 -4.27734,0.722657 -2.5,0 -4.41407,-0.722657 -1.91406,-0.722656 -2.98828,-1.972656 -1.05468,-1.269531 -1.46484,-2.773437 -0.41016,-1.523438 -0.41016,-4.414063 v -7.558594 q 0,-3.398437 0.91797,-5.351562 0.91797,-1.972656 3.00781,-3.007813 2.08985,-1.054687 4.80469,-1.054687 3.32031,0 5.46875,1.269531 2.16797,1.25 3.02735,3.339844 0.8789,2.070312 0.8789,5.839844 z m -7.91015,-4.21875 v -1.894532 q 0,-2.011718 -0.21485,-2.597656 -0.21484,-0.585937 -0.8789,-0.585937 -0.82032,0 -1.01563,0.507812 -0.19531,0.488281 -0.19531,2.675781 v 1.894532 z" />
      </g>
      <g
         style="fill:#1f5c46;fill-opacity:1"
         transform="translate(-132.83276,-1.4939324)"
         id="g1643">
        <g
           id="g1633"
           transform="matrix(0,1.9302412,-1.9302412,0,460.76807,-200.81483)"
           style="fill:#1f5c46;fill-opacity:1">
          <g
             id="g1631"
             style="fill:#1f5c46;fill-opacity:1">
            <g
               id="g1629"
               style="fill:#1f5c46;fill-opacity:1">
              <g
                 aria-label="$"
                 transform="scale(0.88016106,1.1361557)"
                 id="g1627"
                 style="font-style:normal;font-variant:normal;font-weight:normal;font-stretch:normal;font-size:21.9533px;line-height:1.25;font-family:Impact;-inkscape-font-specification:Impact;fill:#1f5c46;fill-opacity:1;stroke:none;stroke-width:0.548832">
                <path
                   d="m 172.38651,62.981835 h -4.33063 v -0.718198 q 0,-1.146975 -0.15007,-1.500714 -0.15008,-0.35374 -0.64317,-0.35374 -0.39661,0 -0.60028,0.310862 -0.19295,0.300143 -0.19295,0.911148 0,1.018341 0.40733,1.425678 0.39662,0.407337 2.33683,1.586469 1.65079,0.996903 2.25107,1.532872 0.60029,0.52525 1.00762,1.500714 0.41806,0.964745 0.41806,2.411862 0,2.315387 -1.11482,3.633871 -1.11481,1.318484 -3.34444,1.629347 v 1.629346 h -1.99381 v -1.682943 q -1.73654,-0.17151 -3.03359,-1.329204 -1.29704,-1.168413 -1.29704,-4.062647 v -0.846831 h 4.33063 v 1.061219 q 0,1.747259 0.12863,2.176035 0.13935,0.418056 0.65388,0.418056 0.4395,0 0.65389,-0.289423 0.21439,-0.300143 0.21439,-0.87899 0,-1.457836 -0.20367,-2.079561 -0.20367,-0.632443 -1.39352,-1.372081 -1.98309,-1.243449 -2.70129,-1.822295 -0.70748,-0.589567 -1.23273,-1.650786 -0.51453,-1.061219 -0.51453,-2.401142 0,-1.940209 1.09338,-3.044305 1.1041,-1.104097 3.30157,-1.361362 v -1.382801 h 1.99381 v 1.382801 q 2.00452,0.257265 3.00142,1.350642 0.99691,1.082658 0.99691,3.001428 0,0.267985 -0.0429,0.814673 z"
                   style="fill:#1f5c46;fill-opacity:1;stroke-width:0.548832"
                   id="path1625" />
              </g>
            </g>
          </g>
        </g>
        <g
           style="fill:#1f5c46;fill-opacity:1"
           id="g1641"
           transform="translate(176.97139,-16.649628)">
          <g
             style="font-style:normal;font-variant:normal;font-weight:normal;font-stretch:normal;font-size:27.3123px;line-height:1.25;font-family:Impact;-inkscape-font-specification:Impact;fill:#1f5c46;fill-opacity:1;stroke:none;stroke-width:0.682808"
             id="g1639"
             aria-label="GU">
            <path
               id="path1635"
               style="fill:#1f5c46;fill-opacity:1;stroke-width:0.682808"
               d="m 136.34493,79.598672 h -5.61449 v -1.960405 q 0,-1.853715 -0.16004,-2.320478 -0.16003,-0.466763 -0.76015,-0.466763 -0.52011,0 -0.70681,0.400082 -0.18671,0.400083 -0.18671,2.053757 v 10.362138 q 0,1.453633 0.18671,1.920396 0.1867,0.453426 0.74682,0.453426 0.61346,0 0.82683,-0.520107 0.22672,-0.520107 0.22672,-2.027085 v -2.560528 h -1.13357 v -3.280676 h 6.57469 v 11.589057 h -3.53406 L 132.29076,91.6945 q -0.57345,1.000206 -1.45363,1.506977 -0.86685,0.493435 -2.05376,0.493435 -1.41363,0 -2.65388,-0.68014 -1.22692,-0.693476 -1.86705,-1.707019 -0.64013,-1.013542 -0.80017,-2.120437 -0.16003,-1.120231 -0.16003,-3.347357 v -6.414656 q 0,-3.093972 0.3334,-4.494261 0.3334,-1.400288 1.90706,-2.560528 1.587,-1.173575 4.09418,-1.173575 2.46717,0 4.09418,1.013542 1.627,1.013543 2.12043,2.413832 0.49344,1.386952 0.49344,4.040833 z" />
            <path
               id="path1637"
               style="fill:#1f5c46;fill-opacity:1;stroke-width:0.682808"
               d="m 151.26801,71.650366 v 14.429643 q 0,2.453839 -0.16004,3.454045 -0.16003,0.98687 -0.94686,2.040421 -0.78683,1.040215 -2.08043,1.586994 -1.28026,0.533443 -3.02729,0.533443 -1.93373,0 -3.41404,-0.640132 -1.4803,-0.640132 -2.21379,-1.66701 -0.73348,-1.026879 -0.86684,-2.160446 -0.13336,-1.146903 -0.13336,-4.80099 V 71.650366 h 5.61449 v 16.190006 q 0,1.413625 0.1467,1.813707 0.16003,0.386746 0.62679,0.386746 0.53345,0 0.68014,-0.426754 0.16004,-0.440091 0.16004,-2.053757 V 71.650366 Z" />
          </g>
        </g>
      </g>
    </g>
    <g
       transform="translate(31.921139,42.796367)"
       id="g1607">
      <g
         aria-label="Finance "
         id="text1425"
         style="font-style:normal;font-variant:normal;font-weight:normal;font-stretch:normal;font-size:40px;line-height:1.25;font-family:Impact;-inkscape-font-specification:Impact;fill:#95a6a4;fill-opacity:1;stroke:none"
         transform="translate(2)">
        <path
           d="m 169.32596,62.828171 h 13.92578 v 6.328125 h -5.70313 v 5.996094 h 5.07813 v 6.015625 h -5.07813 v 13.28125 h -8.22265 z"
           id="path1469" />
        <path
           d="m 193.15408,62.828171 v 4.121094 h -8.125 v -4.121094 z m 0,5.703125 v 25.917969 h -8.125 V 68.531296 Z"
           id="path1471" />
        <path
           d="m 203.99393,68.531296 -0.13672,2.382812 q 0.85937,-1.425781 2.08984,-2.128906 1.25,-0.722656 2.8711,-0.722656 2.03125,0 3.32031,0.957031 1.28906,0.957031 1.66015,2.421875 0.3711,1.445313 0.3711,4.84375 v 18.164063 h -7.89063 V 76.500046 q 0,-2.675781 -0.17578,-3.261719 -0.17578,-0.585937 -0.97656,-0.585937 -0.83984,0 -1.05469,0.683593 -0.21484,0.664063 -0.21484,3.59375 v 17.519532 h -7.89063 V 68.531296 Z"
           id="path1473" />
        <path
           d="m 223.95486,78.570358 h -7.40234 v -1.738281 q 0,-3.007812 0.68359,-4.628906 0.70313,-1.640625 2.79297,-2.890625 2.08985,-1.25 5.42969,-1.25 4.00391,0 6.03516,1.425781 2.03125,1.40625 2.4414,3.476563 0.41016,2.050781 0.41016,8.476562 v 13.007813 h -7.67578 v -2.304688 q -0.72266,1.386719 -1.875,2.089844 -1.13281,0.683594 -2.71485,0.683594 -2.07031,0 -3.80859,-1.152344 -1.71875,-1.171875 -1.71875,-5.097656 v -2.128907 q 0,-2.910156 0.91797,-3.964843 0.91797,-1.054688 4.55078,-2.460938 3.88672,-1.523437 4.16016,-2.050781 0.27343,-0.527344 0.27343,-2.148438 0,-2.03125 -0.3125,-2.636718 -0.29296,-0.625 -0.99609,-0.625 -0.80078,0 -0.99609,0.527343 -0.19532,0.507813 -0.19532,2.675782 z m 2.5,3.554688 q -1.89453,1.386719 -2.20703,2.324219 -0.29297,0.9375 -0.29297,2.695312 0,2.011719 0.25391,2.597656 0.27344,0.585938 1.05469,0.585938 0.74219,0 0.95703,-0.449219 0.23437,-0.46875 0.23437,-2.421875 z"
           id="path1475" />
        <path
           d="m 245.08768,68.531296 -0.13672,2.382812 q 0.85937,-1.425781 2.08984,-2.128906 1.25,-0.722656 2.8711,-0.722656 2.03125,0 3.32031,0.957031 1.28906,0.957031 1.66015,2.421875 0.3711,1.445313 0.3711,4.84375 v 18.164063 h -7.89063 V 76.500046 q 0,-2.675781 -0.17578,-3.261719 -0.17578,-0.585937 -0.97656,-0.585937 -0.83984,0 -1.05469,0.683593 -0.21484,0.664063 -0.21484,3.59375 v 17.519532 h -7.89063 V 68.531296 Z"
           id="path1477" />
        <path
           d="m 275.43924,78.316452 h -7.44141 v -2.988281 q 0,-1.5625 -0.2539,-2.109375 -0.25391,-0.566406 -0.9375,-0.566406 -0.6836,0 -0.91797,0.488281 -0.23438,0.488281 -0.23438,2.1875 v 12.226562 q 0,1.386719 0.35157,2.089844 0.35156,0.683594 1.03515,0.683594 0.80078,0 1.07422,-0.722656 0.29297,-0.722657 0.29297,-2.734375 v -3.085938 h 7.03125 q -0.0195,3.105469 -0.23438,4.667969 -0.19531,1.542969 -1.30859,3.183594 -1.09375,1.621093 -2.87109,2.460937 -1.77735,0.820313 -4.39453,0.820313 -3.33985,0 -5.29297,-1.132813 -1.95313,-1.152344 -2.77344,-3.203125 -0.80078,-2.070312 -0.80078,-5.859375 v -7.363281 q 0,-3.300781 0.66406,-4.980469 0.66406,-1.679687 2.83203,-2.988281 2.16797,-1.328125 5.27344,-1.328125 3.08594,0 5.27344,1.308594 2.1875,1.308593 2.91015,3.300781 0.72266,1.992187 0.72266,5.644531 z"
           id="path1479" />
        <path
           d="m 295.63455,81.949265 h -10.21484 v 5.605468 q 0,1.757813 0.2539,2.265625 0.25391,0.507813 0.97657,0.507813 0.89843,0 1.1914,-0.664063 0.3125,-0.683593 0.3125,-2.617187 v -3.417969 h 7.48047 v 1.914063 q 0,2.402343 -0.3125,3.691406 -0.29297,1.289062 -1.40625,2.753906 -1.11328,1.464844 -2.83203,2.207031 -1.69922,0.722657 -4.27734,0.722657 -2.5,0 -4.41407,-0.722657 -1.91406,-0.722656 -2.98828,-1.972656 -1.05468,-1.269531 -1.46484,-2.773437 -0.41016,-1.523438 -0.41016,-4.414063 v -7.558594 q 0,-3.398437 0.91797,-5.351562 0.91797,-1.972656 3.00781,-3.007813 2.08985,-1.054687 4.80469,-1.054687 3.32031,0 5.46875,1.269531 2.16797,1.25 3.02735,3.339844 0.8789,2.070312 0.8789,5.839844 z m -7.91015,-4.21875 v -1.894532 q 0,-2.011718 -0.21485,-2.597656 -0.21484,-0.585937 -0.8789,-0.585937 -0.82032,0 -1.01563,0.507812 -0.19531,0.488281 -0.19531,2.675781 v 1.894532 z"
           id="path1481" />
      </g>
      <g
         id="g1587"
         transform="translate(-167.68302,9.1126696)">
        <g
           style="fill:#90e1c4;fill-opacity:1"
           transform="matrix(0,1.9302412,-1.9302412,0,460.76807,-200.81483)"
           id="g1467">
          <g
             style="fill:#90e1c4;fill-opacity:1"
             id="g1465">
            <g
               style="fill:#90e1c4;fill-opacity:1"
               id="g1463">
              <g
                 style="font-style:normal;font-variant:normal;font-weight:normal;font-stretch:normal;font-size:21.9533px;line-height:1.25;font-family:Impact;-inkscape-font-specification:Impact;fill:#90e1c4;fill-opacity:1;stroke:none;stroke-width:0.548832"
                 id="g1461"
                 transform="scale(0.88016106,1.1361557)"
                 aria-label="$">
                <path
                   id="path1459"
                   style="fill:#90e1c4;fill-opacity:1;stroke-width:0.548832"
                   d="m 172.38651,62.981835 h -4.33063 v -0.718198 q 0,-1.146975 -0.15007,-1.500714 -0.15008,-0.35374 -0.64317,-0.35374 -0.39661,0 -0.60028,0.310862 -0.19295,0.300143 -0.19295,0.911148 0,1.018341 0.40733,1.425678 0.39662,0.407337 2.33683,1.586469 1.65079,0.996903 2.25107,1.532872 0.60029,0.52525 1.00762,1.500714 0.41806,0.964745 0.41806,2.411862 0,2.315387 -1.11482,3.633871 -1.11481,1.318484 -3.34444,1.629347 v 1.629346 h -1.99381 v -1.682943 q -1.73654,-0.17151 -3.03359,-1.329204 -1.29704,-1.168413 -1.29704,-4.062647 v -0.846831 h 4.33063 v 1.061219 q 0,1.747259 0.12863,2.176035 0.13935,0.418056 0.65388,0.418056 0.4395,0 0.65389,-0.289423 0.21439,-0.300143 0.21439,-0.87899 0,-1.457836 -0.20367,-2.079561 -0.20367,-0.632443 -1.39352,-1.372081 -1.98309,-1.243449 -2.70129,-1.822295 -0.70748,-0.589567 -1.23273,-1.650786 -0.51453,-1.061219 -0.51453,-2.401142 0,-1.940209 1.09338,-3.044305 1.1041,-1.104097 3.30157,-1.361362 v -1.382801 h 1.99381 v 1.382801 q 2.00452,0.257265 3.00142,1.350642 0.99691,1.082658 0.99691,3.001428 0,0.267985 -0.0429,0.814673 z" />
              </g>
            </g>
          </g>
        </g>
        <g
           transform="translate(176.97139,-16.649628)"
           id="g1556">
          <g
             aria-label="GU"
             id="text1486"
             style="font-style:normal;font-variant:normal;font-weight:normal;font-stretch:normal;font-size:27.3123px;line-height:1.25;font-family:Impact;-inkscape-font-specification:Impact;fill:#90e1c4;fill-opacity:1;stroke:none;stroke-width:0.682808">
            <path
               d="m 136.34493,79.598672 h -5.61449 v -1.960405 q 0,-1.853715 -0.16004,-2.320478 -0.16003,-0.466763 -0.76015,-0.466763 -0.52011,0 -0.70681,0.400082 -0.18671,0.400083 -0.18671,2.053757 v 10.362138 q 0,1.453633 0.18671,1.920396 0.1867,0.453426 0.74682,0.453426 0.61346,0 0.82683,-0.520107 0.22672,-0.520107 0.22672,-2.027085 v -2.560528 h -1.13357 v -3.280676 h 6.57469 v 11.589057 h -3.53406 L 132.29076,91.6945 q -0.57345,1.000206 -1.45363,1.506977 -0.86685,0.493435 -2.05376,0.493435 -1.41363,0 -2.65388,-0.68014 -1.22692,-0.693476 -1.86705,-1.707019 -0.64013,-1.013542 -0.80017,-2.120437 -0.16003,-1.120231 -0.16003,-3.347357 v -6.414656 q 0,-3.093972 0.3334,-4.494261 0.3334,-1.400288 1.90706,-2.560528 1.587,-1.173575 4.09418,-1.173575 2.46717,0 4.09418,1.013542 1.627,1.013543 2.12043,2.413832 0.49344,1.386952 0.49344,4.040833 z"
               style="fill:#90e1c4;fill-opacity:1;stroke-width:0.682808"
               id="path1488" />
            <path
               d="m 151.26801,71.650366 v 14.429643 q 0,2.453839 -0.16004,3.454045 -0.16003,0.98687 -0.94686,2.040421 -0.78683,1.040215 -2.08043,1.586994 -1.28026,0.533443 -3.02729,0.533443 -1.93373,0 -3.41404,-0.640132 -1.4803,-0.640132 -2.21379,-1.66701 -0.73348,-1.026879 -0.86684,-2.160446 -0.13336,-1.146903 -0.13336,-4.80099 V 71.650366 h 5.61449 v 16.190006 q 0,1.413625 0.1467,1.813707 0.16003,0.386746 0.62679,0.386746 0.53345,0 0.68014,-0.426754 0.16004,-0.440091 0.16004,-2.053757 V 71.650366 Z"
               style="fill:#90e1c4;fill-opacity:1;stroke-width:0.682808"
               id="path1490" />
          </g>
        </g>
      </g>
    </g>
    <g
       transform="translate(35.860415,-61.114229)"
       id="g1683"
       style="fill:#ffffff;fill-opacity:1">
      <g
         aria-label="Finance "
         id="g1661"
         style="font-style:normal;font-variant:normal;font-weight:normal;font-stretch:normal;font-size:40px;line-height:1.25;font-family:Impact;-inkscape-font-specification:Impact;fill:#ffffff;fill-opacity:1;stroke:none"
         transform="translate(2)">
        <path
           d="m 169.32596,62.828171 h 13.92578 v 6.328125 h -5.70313 v 5.996094 h 5.07813 v 6.015625 h -5.07813 v 13.28125 h -8.22265 z"
           id="path1647"
           style="fill:#ffffff;fill-opacity:1" />
        <path
           d="m 193.15408,62.828171 v 4.121094 h -8.125 v -4.121094 z m 0,5.703125 v 25.917969 h -8.125 V 68.531296 Z"
           id="path1649"
           style="fill:#ffffff;fill-opacity:1" />
        <path
           d="m 203.99393,68.531296 -0.13672,2.382812 q 0.85937,-1.425781 2.08984,-2.128906 1.25,-0.722656 2.8711,-0.722656 2.03125,0 3.32031,0.957031 1.28906,0.957031 1.66015,2.421875 0.3711,1.445313 0.3711,4.84375 v 18.164063 h -7.89063 V 76.500046 q 0,-2.675781 -0.17578,-3.261719 -0.17578,-0.585937 -0.97656,-0.585937 -0.83984,0 -1.05469,0.683593 -0.21484,0.664063 -0.21484,3.59375 v 17.519532 h -7.89063 V 68.531296 Z"
           id="path1651"
           style="fill:#ffffff;fill-opacity:1" />
        <path
           d="m 223.95486,78.570358 h -7.40234 v -1.738281 q 0,-3.007812 0.68359,-4.628906 0.70313,-1.640625 2.79297,-2.890625 2.08985,-1.25 5.42969,-1.25 4.00391,0 6.03516,1.425781 2.03125,1.40625 2.4414,3.476563 0.41016,2.050781 0.41016,8.476562 v 13.007813 h -7.67578 v -2.304688 q -0.72266,1.386719 -1.875,2.089844 -1.13281,0.683594 -2.71485,0.683594 -2.07031,0 -3.80859,-1.152344 -1.71875,-1.171875 -1.71875,-5.097656 v -2.128907 q 0,-2.910156 0.91797,-3.964843 0.91797,-1.054688 4.55078,-2.460938 3.88672,-1.523437 4.16016,-2.050781 0.27343,-0.527344 0.27343,-2.148438 0,-2.03125 -0.3125,-2.636718 -0.29296,-0.625 -0.99609,-0.625 -0.80078,0 -0.99609,0.527343 -0.19532,0.507813 -0.19532,2.675782 z m 2.5,3.554688 q -1.89453,1.386719 -2.20703,2.324219 -0.29297,0.9375 -0.29297,2.695312 0,2.011719 0.25391,2.597656 0.27344,0.585938 1.05469,0.585938 0.74219,0 0.95703,-0.449219 0.23437,-0.46875 0.23437,-2.421875 z"
           id="path1653"
           style="fill:#ffffff;fill-opacity:1" />
        <path
           d="m 245.08768,68.531296 -0.13672,2.382812 q 0.85937,-1.425781 2.08984,-2.128906 1.25,-0.722656 2.8711,-0.722656 2.03125,0 3.32031,0.957031 1.28906,0.957031 1.66015,2.421875 0.3711,1.445313 0.3711,4.84375 v 18.164063 h -7.89063 V 76.500046 q 0,-2.675781 -0.17578,-3.261719 -0.17578,-0.585937 -0.97656,-0.585937 -0.83984,0 -1.05469,0.683593 -0.21484,0.664063 -0.21484,3.59375 v 17.519532 h -7.89063 V 68.531296 Z"
           id="path1655"
           style="fill:#ffffff;fill-opacity:1" />
        <path
           d="m 275.43924,78.316452 h -7.44141 v -2.988281 q 0,-1.5625 -0.2539,-2.109375 -0.25391,-0.566406 -0.9375,-0.566406 -0.6836,0 -0.91797,0.488281 -0.23438,0.488281 -0.23438,2.1875 v 12.226562 q 0,1.386719 0.35157,2.089844 0.35156,0.683594 1.03515,0.683594 0.80078,0 1.07422,-0.722656 0.29297,-0.722657 0.29297,-2.734375 v -3.085938 h 7.03125 q -0.0195,3.105469 -0.23438,4.667969 -0.19531,1.542969 -1.30859,3.183594 -1.09375,1.621093 -2.87109,2.460937 -1.77735,0.820313 -4.39453,0.820313 -3.33985,0 -5.29297,-1.132813 -1.95313,-1.152344 -2.77344,-3.203125 -0.80078,-2.070312 -0.80078,-5.859375 v -7.363281 q 0,-3.300781 0.66406,-4.980469 0.66406,-1.679687 2.83203,-2.988281 2.16797,-1.328125 5.27344,-1.328125 3.08594,0 5.27344,1.308594 2.1875,1.308593 2.91015,3.300781 0.72266,1.992187 0.72266,5.644531 z"
           id="path1657"
           style="fill:#ffffff;fill-opacity:1" />
        <path
           d="m 295.63455,81.949265 h -10.21484 v 5.605468 q 0,1.757813 0.2539,2.265625 0.25391,0.507813 0.97657,0.507813 0.89843,0 1.1914,-0.664063 0.3125,-0.683593 0.3125,-2.617187 v -3.417969 h 7.48047 v 1.914063 q 0,2.402343 -0.3125,3.691406 -0.29297,1.289062 -1.40625,2.753906 -1.11328,1.464844 -2.83203,2.207031 -1.69922,0.722657 -4.27734,0.722657 -2.5,0 -4.41407,-0.722657 -1.91406,-0.722656 -2.98828,-1.972656 -1.05468,-1.269531 -1.46484,-2.773437 -0.41016,-1.523438 -0.41016,-4.414063 v -7.558594 q 0,-3.398437 0.91797,-5.351562 0.91797,-1.972656 3.00781,-3.007813 2.08985,-1.054687 4.80469,-1.054687 3.32031,0 5.46875,1.269531 2.16797,1.25 3.02735,3.339844 0.8789,2.070312 0.8789,5.839844 z m -7.91015,-4.21875 v -1.894532 q 0,-2.011718 -0.21485,-2.597656 -0.21484,-0.585937 -0.8789,-0.585937 -0.82032,0 -1.01563,0.507812 -0.19531,0.488281 -0.19531,2.675781 v 1.894532 z"
           id="path1659"
           style="fill:#ffffff;fill-opacity:1" />
      </g>
      <g
         id="g1681"
         transform="translate(-167.68302,9.1126696)"
         style="fill:#ffffff;fill-opacity:1">
        <g
           style="fill:#ffffff;fill-opacity:1"
           transform="matrix(0,1.9302412,-1.9302412,0,460.76807,-200.81483)"
           id="g1671">
          <g
             style="fill:#ffffff;fill-opacity:1"
             id="g1669">
            <g
               style="fill:#ffffff;fill-opacity:1"
               id="g1667">
              <g
                 style="font-style:normal;font-variant:normal;font-weight:normal;font-stretch:normal;font-size:21.9533px;line-height:1.25;font-family:Impact;-inkscape-font-specification:Impact;fill:#ffffff;fill-opacity:1;stroke:none;stroke-width:0.548832"
                 id="g1665"
                 transform="scale(0.88016106,1.1361557)"
                 aria-label="$">
                <path
                   id="path1663"
                   style="fill:#ffffff;fill-opacity:1;stroke-width:0.548832"
                   d="m 172.38651,62.981835 h -4.33063 v -0.718198 q 0,-1.146975 -0.15007,-1.500714 -0.15008,-0.35374 -0.64317,-0.35374 -0.39661,0 -0.60028,0.310862 -0.19295,0.300143 -0.19295,0.911148 0,1.018341 0.40733,1.425678 0.39662,0.407337 2.33683,1.586469 1.65079,0.996903 2.25107,1.532872 0.60029,0.52525 1.00762,1.500714 0.41806,0.964745 0.41806,2.411862 0,2.315387 -1.11482,3.633871 -1.11481,1.318484 -3.34444,1.629347 v 1.629346 h -1.99381 v -1.682943 q -1.73654,-0.17151 -3.03359,-1.329204 -1.29704,-1.168413 -1.29704,-4.062647 v -0.846831 h 4.33063 v 1.061219 q 0,1.747259 0.12863,2.176035 0.13935,0.418056 0.65388,0.418056 0.4395,0 0.65389,-0.289423 0.21439,-0.300143 0.21439,-0.87899 0,-1.457836 -0.20367,-2.079561 -0.20367,-0.632443 -1.39352,-1.372081 -1.98309,-1.243449 -2.70129,-1.822295 -0.70748,-0.589567 -1.23273,-1.650786 -0.51453,-1.061219 -0.51453,-2.401142 0,-1.940209 1.09338,-3.044305 1.1041,-1.104097 3.30157,-1.361362 v -1.382801 h 1.99381 v 1.382801 q 2.00452,0.257265 3.00142,1.350642 0.99691,1.082658 0.99691,3.001428 0,0.267985 -0.0429,0.814673 z" />
              </g>
            </g>
          </g>
        </g>
        <g
           transform="translate(176.97139,-16.649628)"
           id="g1679"
           style="fill:#ffffff;fill-opacity:1">
          <g
             aria-label="GU"
             id="g1677"
             style="font-style:normal;font-variant:normal;font-weight:normal;font-stretch:normal;font-size:27.3123px;line-height:1.25;font-family:Impact;-inkscape-font-specification:Impact;fill:#ffffff;fill-opacity:1;stroke:none;stroke-width:0.682808">
            <path
               d="m 136.34493,79.598672 h -5.61449 v -1.960405 q 0,-1.853715 -0.16004,-2.320478 -0.16003,-0.466763 -0.76015,-0.466763 -0.52011,0 -0.70681,0.400082 -0.18671,0.400083 -0.18671,2.053757 v 10.362138 q 0,1.453633 0.18671,1.920396 0.1867,0.453426 0.74682,0.453426 0.61346,0 0.82683,-0.520107 0.22672,-0.520107 0.22672,-2.027085 v -2.560528 h -1.13357 v -3.280676 h 6.57469 v 11.589057 h -3.53406 L 132.29076,91.6945 q -0.57345,1.000206 -1.45363,1.506977 -0.86685,0.493435 -2.05376,0.493435 -1.41363,0 -2.65388,-0.68014 -1.22692,-0.693476 -1.86705,-1.707019 -0.64013,-1.013542 -0.80017,-2.120437 -0.16003,-1.120231 -0.16003,-3.347357 v -6.414656 q 0,-3.093972 0.3334,-4.494261 0.3334,-1.400288 1.90706,-2.560528 1.587,-1.173575 4.09418,-1.173575 2.46717,0 4.09418,1.013542 1.627,1.013543 2.12043,2.413832 0.49344,1.386952 0.49344,4.040833 z"
               style="fill:#ffffff;fill-opacity:1;stroke-width:0.682808"
               id="path1673" />
            <path
               d="m 151.26801,71.650366 v 14.429643 q 0,2.453839 -0.16004,3.454045 -0.16003,0.98687 -0.94686,2.040421 -0.78683,1.040215 -2.08043,1.586994 -1.28026,0.533443 -3.02729,0.533443 -1.93373,0 -3.41404,-0.640132 -1.4803,-0.640132 -2.21379,-1.66701 -0.73348,-1.026879 -0.86684,-2.160446 -0.13336,-1.146903 -0.13336,-4.80099 V 71.650366 h 5.61449 v 16.190006 q 0,1.413625 0.1467,1.813707 0.16003,0.386746 0.62679,0.386746 0.53345,0 0.68014,-0.426754 0.16004,-0.440091 0.16004,-2.053757 V 71.650366 Z"
               style="fill:#ffffff;fill-opacity:1;stroke-width:0.682808"
               id="path1675" />
          </g>
        </g>
      </g>
    </g>
    <g
       inkscape:export-ydpi="1090.6862"
       inkscape:export-xdpi="1090.6862"
       style="fill:#1f5c46;fill-opacity:1"
       transform="translate(-227.28202,0.02129642)"
       id="g1723">
      <g
         id="g1713"
         transform="matrix(0,1.9302412,-1.9302412,0,460.76807,-200.81483)"
         style="fill:#1f5c46;fill-opacity:1">
        <g
           id="g1711"
           style="fill:#1f5c46;fill-opacity:1">
          <g
             id="g1709"
             style="fill:#1f5c46;fill-opacity:1">
            <g
               aria-label="$"
               transform="scale(0.88016106,1.1361557)"
               id="g1707"
               style="font-style:normal;font-variant:normal;font-weight:normal;font-stretch:normal;font-size:21.9533px;line-height:1.25;font-family:Impact;-inkscape-font-specification:Impact;fill:#1f5c46;fill-opacity:1;stroke:none;stroke-width:0.548832">
              <path
                 d="m 172.38651,62.981835 h -4.33063 v -0.718198 q 0,-1.146975 -0.15007,-1.500714 -0.15008,-0.35374 -0.64317,-0.35374 -0.39661,0 -0.60028,0.310862 -0.19295,0.300143 -0.19295,0.911148 0,1.018341 0.40733,1.425678 0.39662,0.407337 2.33683,1.586469 1.65079,0.996903 2.25107,1.532872 0.60029,0.52525 1.00762,1.500714 0.41806,0.964745 0.41806,2.411862 0,2.315387 -1.11482,3.633871 -1.11481,1.318484 -3.34444,1.629347 v 1.629346 h -1.99381 v -1.682943 q -1.73654,-0.17151 -3.03359,-1.329204 -1.29704,-1.168413 -1.29704,-4.062647 v -0.846831 h 4.33063 v 1.061219 q 0,1.747259 0.12863,2.176035 0.13935,0.418056 0.65388,0.418056 0.4395,0 0.65389,-0.289423 0.21439,-0.300143 0.21439,-0.87899 0,-1.457836 -0.20367,-2.079561 -0.20367,-0.632443 -1.39352,-1.372081 -1.98309,-1.243449 -2.70129,-1.822295 -0.70748,-0.589567 -1.23273,-1.650786 -0.51453,-1.061219 -0.51453,-2.401142 0,-1.940209 1.09338,-3.044305 1.1041,-1.104097 3.30157,-1.361362 v -1.382801 h 1.99381 v 1.382801 q 2.00452,0.257265 3.00142,1.350642 0.99691,1.082658 0.99691,3.001428 0,0.267985 -0.0429,0.814673 z"
                 style="fill:#1f5c46;fill-opacity:1;stroke-width:0.548832"
                 id="path1705" />
            </g>
          </g>
        </g>
      </g>
      <g
         style="fill:#1f5c46;fill-opacity:1"
         id="g1721"
         transform="translate(176.97139,-16.649628)">
        <g
           style="font-style:normal;font-variant:normal;font-weight:normal;font-stretch:normal;font-size:27.3123px;line-height:1.25;font-family:Impact;-inkscape-font-specification:Impact;fill:#1f5c46;fill-opacity:1;stroke:none;stroke-width:0.682808"
           id="g1719"
           aria-label="GU">
          <path
             id="path1715"
             style="fill:#1f5c46;fill-opacity:1;stroke-width:0.682808"
             d="m 136.34493,79.598672 h -5.61449 v -1.960405 q 0,-1.853715 -0.16004,-2.320478 -0.16003,-0.466763 -0.76015,-0.466763 -0.52011,0 -0.70681,0.400082 -0.18671,0.400083 -0.18671,2.053757 v 10.362138 q 0,1.453633 0.18671,1.920396 0.1867,0.453426 0.74682,0.453426 0.61346,0 0.82683,-0.520107 0.22672,-0.520107 0.22672,-2.027085 v -2.560528 h -1.13357 v -3.280676 h 6.57469 v 11.589057 h -3.53406 L 132.29076,91.6945 q -0.57345,1.000206 -1.45363,1.506977 -0.86685,0.493435 -2.05376,0.493435 -1.41363,0 -2.65388,-0.68014 -1.22692,-0.693476 -1.86705,-1.707019 -0.64013,-1.013542 -0.80017,-2.120437 -0.16003,-1.120231 -0.16003,-3.347357 v -6.414656 q 0,-3.093972 0.3334,-4.494261 0.3334,-1.400288 1.90706,-2.560528 1.587,-1.173575 4.09418,-1.173575 2.46717,0 4.09418,1.013542 1.627,1.013543 2.12043,2.413832 0.49344,1.386952 0.49344,4.040833 z" />
          <path
             id="path1717"
             style="fill:#1f5c46;fill-opacity:1;stroke-width:0.682808"
             d="m 151.26801,71.650366 v 14.429643 q 0,2.453839 -0.16004,3.454045 -0.16003,0.98687 -0.94686,2.040421 -0.78683,1.040215 -2.08043,1.586994 -1.28026,0.533443 -3.02729,0.533443 -1.93373,0 -3.41404,-0.640132 -1.4803,-0.640132 -2.21379,-1.66701 -0.73348,-1.026879 -0.86684,-2.160446 -0.13336,-1.146903 -0.13336,-4.80099 V 71.650366 h 5.61449 v 16.190006 q 0,1.413625 0.1467,1.813707 0.16003,0.386746 0.62679,0.386746 0.53345,0 0.68014,-0.426754 0.16004,-0.440091 0.16004,-2.053757 V 71.650366 Z" />
        </g>
      </g>
    </g>
  </g>
</svg>
